<?xml version="1.0" encoding="UTF-8"?>
<svg version="1.1" xmlns="http://www.w3.org/2000/svg" width="512" height="512">
<path d="M0 0 C168.96 0 337.92 0 512 0 C512 168.96 512 337.92 512 512 C343.04 512 174.08 512 0 512 C0 343.04 0 174.08 0 0 Z " fill="#FEFEFE" transform="translate(0,0)"/>
<path d="M0 0 C0 0.66 0 1.32 0 2 C-0.83917969 2.24492188 -1.67835938 2.48984375 -2.54296875 2.7421875 C-41.73481791 14.92400557 -77.26523445 39.52058489 -97 76 C-98.05340853 78.56876844 -98.05340853 78.56876844 -98.75 80.9375 C-98.99234375 81.70964844 -99.2346875 82.48179687 -99.484375 83.27734375 C-99.65453125 83.84582031 -99.8246875 84.41429687 -100 85 C-99.443125 84.10539062 -98.88625 83.21078125 -98.3125 82.2890625 C-77.17327263 48.65210729 -45.54524842 27.8395642 -7 19 C-3.01013903 18.2126893 0.97290197 17.55734719 5 17 C5.96895315 32.6778749 5.69857888 44.54917241 -5.0625 56.875 C-14.86846981 65.44456492 -27.39060042 69.94441089 -39.24243164 74.86010742 C-61.3680294 84.09412699 -88.68617891 97.60699305 -99.1953125 120.6171875 C-100.82060759 125.42995452 -100.39121058 128.99645981 -98.5625 133.6875 C-95.63344749 138.12606421 -92.13097623 139.87238624 -87 141 C-65.00082269 143.51781218 -44.77337282 134.46298465 -27.58984375 121.27001953 C-19.11799986 114.50243171 -11.78561071 106.95442668 -5.0234375 98.49609375 C-3.42773058 96.52764449 -1.83696396 94.73751049 0 93 C-4.40020354 104.6215902 -11.70117994 113.95272342 -20 123 C-20.48130371 123.52658203 -20.96260742 124.05316406 -21.45849609 124.59570312 C-34.89727404 139.10904377 -53.37468146 152.89212283 -73.734375 154.171875 C-87.28305256 154.54614786 -96.68331502 150.22102465 -106.625 140.9375 C-114.71566926 132.34206528 -120.01734713 122.67417368 -124.4375 111.8125 C-124.76758057 111.00578857 -125.09766113 110.19907715 -125.43774414 109.36791992 C-133.97074031 87.32676449 -132.04659187 60.59321594 -123.8125 38.75 C-113.99824334 17.00764679 -97.78973283 2.19365496 -76 -7 C-72.69592631 -8.23240182 -69.43574998 -9.21744228 -66 -10 C-65.3711792 -10.16411377 -64.7423584 -10.32822754 -64.09448242 -10.49731445 C-42.16386076 -15.92712939 -19.28711955 -11.08051405 0 0 Z " fill="#05944F" transform="translate(305,117)"/>
<path d="M0 0 C12.26686055 4.98250155 22.49003339 21.34231813 27.875 32.6875 C38.25395371 57.31067294 34.10851366 80.7319118 25 105 C23.73851173 108.03518535 22.39258269 111.02294604 21 114 C20.71205566 114.62036133 20.42411133 115.24072266 20.12744141 115.87988281 C11.93847937 133.25957257 1.76727433 149.38976578 -9.5 164.91894531 C-11.52792365 167.73242532 -13.5121372 170.57560542 -15.49926758 173.41796875 C-19.82437094 179.59849713 -24.24296228 185.68559382 -28.8125 191.6875 C-36.28121289 201.50621699 -43.1211686 211.76384595 -50 222 C-54.17136217 220.60954594 -55.50533837 217.65401772 -57.8125 214.125 C-62.11953165 207.69417391 -66.57597138 201.40368457 -71.1875 195.1875 C-71.78828369 194.37659912 -72.38906738 193.56569824 -73.00805664 192.73022461 C-74.16091238 191.17521358 -75.31428837 189.62058808 -76.46826172 188.06640625 C-83.09410521 179.1277484 -89.54431889 170.06176549 -96 161 C-95.505 160.01 -95.505 160.01 -95 159 C-94.21238281 159.144375 -93.42476562 159.28875 -92.61328125 159.4375 C-68.67291562 163.51727829 -44.85475906 158.91457106 -24.828125 144.7578125 C-21.85210686 142.54394535 -18.91331311 140.29559056 -16 138 C-15.12472656 137.319375 -14.24945313 136.63875 -13.34765625 135.9375 C-0.94121589 125.69857418 7.51862162 110.4694103 14 96 C14.42152344 95.06800781 14.84304688 94.13601562 15.27734375 93.17578125 C24.02509926 71.61999127 23.31815433 45.80708729 14.54882812 24.45288086 C11.6829412 17.89916925 7.95470767 11.94807247 4 6 C3.62649414 5.43812988 3.25298828 4.87625977 2.86816406 4.29736328 C1.91402269 2.8636337 0.95726634 1.431645 0 0 Z " fill="#08397B" transform="translate(311,122)"/>
<path d="M0 0 C-2.10365309 2.23391024 -4.2587146 3.87508756 -6.8125 5.5625 C-13.11389908 10.23922897 -17.19180237 17.22599555 -18.765625 24.90625 C-19.21657085 28.93469959 -19.14921241 32.95468584 -19 37 C-18.84144531 36.0821875 -18.68289062 35.164375 -18.51953125 34.21875 C-16.52397227 23.72277126 -14.62508938 17.36083477 -5.8125 11.0625 C0.24018234 7.07880053 4.68235517 5.90285655 12 7 C15.49029792 8.97277708 18.19844633 11.39689265 20 15 C20.98618668 20.82278918 21.27423834 25.88616818 18.15625 31.05859375 C13.26366773 36.64016308 7.92408418 40.56665482 1.55859375 44.3046875 C-2.84691114 47.22375486 -6.62412975 51.2482595 -9 56 C-9.22622081 57.70363822 -9.40888473 59.41328701 -9.5625 61.125 C-9.64628906 62.03507812 -9.73007813 62.94515625 -9.81640625 63.8828125 C-9.90728516 64.93082031 -9.90728516 64.93082031 -10 66 C-20.53376476 58.54928834 -24.77474018 47.35813935 -27 35 C-27.95719399 26.50490332 -27.04668054 18.45432408 -22.1484375 11.29296875 C-16.14516258 4.04873417 -9.62849498 -0.37557959 0 0 Z " fill="#099451" transform="translate(197,283)"/>
<path d="M0 0 C5.03359633 2.3843351 8.49996787 5.99993573 11 11 C11.68658231 18.47393887 12.17215153 25.30014471 7.3984375 31.4453125 C6.93695313 31.95835937 6.47546875 32.47140625 6 33 C5.319375 33.825 4.63875 34.65 3.9375 35.5 C-1.40714984 38.2291829 -8.00514246 37.95310795 -13.67578125 36.1484375 C-18.19852669 33.91366916 -21.20815226 30.65568164 -23.375 26.125 C-24.80121508 18.99392458 -24.36470722 12.51834424 -21 6 C-14.9942602 -0.74244389 -8.56831027 -0.75142307 0 0 Z " fill="#103D7A" transform="translate(239,412)"/>
<path d="M0 0 C2.31 0 4.62 0 7 0 C7 12.54 7 25.08 7 38 C0 38 0 38 -1.83276367 36.53466797 C-2.27338135 35.86064941 -2.71399902 35.18663086 -3.16796875 34.4921875 C-3.66876953 33.75226563 -4.16957031 33.01234375 -4.68554688 32.25 C-5.18119141 31.46625 -5.67683594 30.6825 -6.1875 29.875 C-6.69474609 29.11445313 -7.20199219 28.35390625 -7.72460938 27.5703125 C-9.17143081 25.39351242 -10.58703231 23.1988635 -12 21 C-13.32610782 18.99506974 -14.66292096 16.99764076 -16 15 C-16.33 19.62 -16.66 24.24 -17 29 C-19.31 29 -21.62 29 -24 29 C-24 19.76 -24 10.52 -24 1 C-16 1 -16 1 -14.25317383 2.26586914 C-13.90794678 2.84973389 -13.56271973 3.43359863 -13.20703125 4.03515625 C-12.80419922 4.68033203 -12.40136719 5.32550781 -11.98632812 5.99023438 C-11.4052832 7.01600586 -11.4052832 7.01600586 -10.8125 8.0625 C-10.00766564 9.38742119 -9.20167876 10.71164297 -8.39453125 12.03515625 C-8.05268799 12.6269165 -7.71084473 13.21867676 -7.35864258 13.82836914 C-5.38556867 16.98209643 -3.16225424 19.97284406 -1 23 C-0.67 15.41 -0.34 7.82 0 0 Z " fill="#103D79" transform="translate(298,411)"/>
<path d="M0 0 C4.35403865 -0.08755672 8.70784877 -0.14057969 13.0625 -0.1875 C14.29162109 -0.21263672 15.52074219 -0.23777344 16.78710938 -0.26367188 C25.10026963 -0.3308942 30.39636186 0.00974707 36.9375 5.4375 C39 8 39 8 39 12 C34 12 29 12 24 12 C28.55491614 14.20399168 33.02906176 14.58846263 38 15 C38 15.66 38 16.32 38 17 C31.58336908 20.5813754 25.24664542 21.05533671 18 20 C10.91243327 17.18205178 5.98254764 11.34339306 2 5 C1.31603924 3.34035549 0.64705641 1.67437756 0 0 Z " fill="#119656" transform="translate(150,255)"/>
<path d="M0 0 C0.7734375 -0.00257813 1.546875 -0.00515625 2.34375 -0.0078125 C4.5 0.125 4.5 0.125 7.5 1.125 C6.02202738 4.79556937 4.02384523 6.53585783 0.875 8.875 C0.05773437 9.48859375 -0.75953125 10.1021875 -1.6015625 10.734375 C-2.22804687 11.19328125 -2.85453125 11.6521875 -3.5 12.125 C1.3274799 10.71207905 5.2162359 8.69525846 9.5 6.125 C8.52769372 12.38974614 5.6809289 17.71850248 0.55859375 21.59375 C-6.48251327 25.22452342 -14.73375011 25.27547411 -22.33203125 23.44140625 C-24.418141 22.7547969 -26.46567176 21.95252335 -28.5 21.125 C-26.51210919 19.08322059 -24.4573099 17.23738588 -22.25 15.4375 C-18.84844262 12.56091871 -16.00991653 9.38640258 -13.17578125 5.95703125 C-9.27536057 1.69293498 -5.78112447 -0.01927041 0 0 Z " fill="#109555" transform="translate(157.5,284.875)"/>
<path d="M0 0 C2.25 0.875 2.25 0.875 3.25 1.875 C3.29315144 4.55038915 3.29680441 7.20194821 3.25 9.875 C3.25 10.865 3.25 11.855 3.25 12.875 C3.62511719 12.23691406 4.00023437 11.59882813 4.38671875 10.94140625 C5.15435547 9.70197266 5.15435547 9.70197266 5.9375 8.4375 C6.43636719 7.61378906 6.93523437 6.79007812 7.44921875 5.94140625 C9.63099448 3.43780677 11.00480334 3.17906442 14.25 2.875 C15.2757259 7.28562136 15.28684712 9.80130576 13.25 13.875 C13.91 13.875 14.57 13.875 15.25 13.875 C15.53875 13.09125 15.8275 12.3075 16.125 11.5 C17.25 8.875 17.25 8.875 19.25 6.875 C21.8125 6.6875 21.8125 6.6875 24.25 6.875 C25.25 7.875 25.25 7.875 25.5 11.4375 C25.45044406 16.04620264 24.09324654 19.70058871 22.25 23.875 C20.4921414 27.87901125 19.76191524 31.52372044 19.25 35.875 C22.715 35.38 22.715 35.38 26.25 34.875 C25.59 36.195 24.93 37.515 24.25 38.875 C21.9375 39.1875 21.9375 39.1875 19.25 38.875 C15.88317011 35.04377979 15.98929624 31.80792407 16.25 26.875 C16.83584209 24.43747846 17.50401407 22.01837152 18.25 19.625 C19.77989473 14.82969063 19.77989473 14.82969063 20.25 9.875 C15.53357123 16.26324646 11.580042 22.66246663 8.25 29.875 C7.59 29.545 6.93 29.215 6.25 28.875 C5.71153529 21.74034257 7.56256159 16.43666532 10.25 9.875 C10.62382812 8.94042969 10.99765625 8.00585938 11.3828125 7.04296875 C11.81207031 5.96982422 11.81207031 5.96982422 12.25 4.875 C11.59 4.875 10.93 4.875 10.25 4.875 C9.99992187 5.39964844 9.74984375 5.92429687 9.4921875 6.46484375 C8.22833587 8.91703385 6.84012088 11.27673607 5.43164062 13.64794922 C1.57544247 20.17889481 -1.49245532 26.59738886 -3.75 33.875 C-4.74 33.545 -5.73 33.215 -6.75 32.875 C-7.1232899 26.91030387 -5.84543976 22.39029125 -3.8125 16.8125 C-2.03367626 11.83922248 -0.41647269 7.14772699 0.25 1.875 C-3.23331435 4.89387244 -4.54157144 7.44409529 -5.75 11.875 C-6.41 11.875 -7.07 11.875 -7.75 11.875 C-8.18089173 7.47990434 -8.21051828 5.50656793 -5.5625 1.875 C-2.75 -0.125 -2.75 -0.125 0 0 Z " fill="#339768" transform="translate(239.75,363.125)"/>
<path d="M0 0 C16.07354785 -0.75344756 16.07354785 -0.75344756 23 4 C25.66836411 8.00254616 25.8340238 11.29313299 25 16 C22.81840855 18.75569447 21.12822506 20.43588747 18 22 C14.32984725 22.1377685 10.67388652 22.04271961 7 22 C7 27.28 7 32.56 7 38 C4.69 38 2.38 38 0 38 C0 30.74 0 23.48 0 16 C7.9375 15.5625 7.9375 15.5625 10.44116211 15.43188477 C14.02044292 15.53795177 14.02044292 15.53795177 17 14 C17.04063832 12.33382885 17.042721 10.66611905 17 9 C13.95786733 7.47893366 10.71952428 7.62570662 7.375 7.4375 C6.66859375 7.39431641 5.9621875 7.35113281 5.234375 7.30664062 C3.48981463 7.20055249 1.74493303 7.09977111 0 7 C0 4.69 0 2.38 0 0 Z " fill="#15407A" transform="translate(185,411)"/>
<path d="M0 0 C3.85771696 1.67726824 5.45817446 3.13867376 7 7 C7.6651079 12.18938841 7.85240019 16.57933301 5.125 21.125 C1.56518332 24.26601472 -1.11821241 24.39266737 -5.73828125 24.35546875 C-9.35701199 23.78672178 -10.88030223 21.84834388 -13 19 C-14.59060557 14.22818329 -15.23309612 9.49804342 -12.94140625 4.85546875 C-9.10260464 -0.25253014 -6.22678881 -0.98837918 0 0 Z " fill="#F1F5F6" transform="translate(236,418)"/>
<path d="M0 0 C2.31 0 4.62 0 7 0 C7 10.56 7 21.12 7 32 C8.32 32 9.64 32 11 32 C11 33.98 11 35.96 11 38 C6.05 38 1.1 38 -4 38 C-4 35.69 -4 33.38 -4 31 C-2.68 31 -1.36 31 0 31 C0 20.77 0 10.54 0 0 Z " fill="#154079" transform="translate(259,411)"/>
<path d="M0 0 C0.99 0 1.98 0 3 0 C2.67 3.96 2.34 7.92 2 12 C2.99 11.67 3.98 11.34 5 11 C5.71247732 9.3523962 6.37400383 7.68236471 7 6 C8.375 3.6875 8.375 3.6875 10 2 C11.32 2 12.64 2 14 2 C13.42415568 4.38564077 12.77772405 6.66682784 12 9 C14.64 7.02 17.28 5.04 20 3 C18.16408591 6.67182819 17.50745513 7.54986971 14.5625 9.9375 C10.31845557 13.99740201 9.7257739 18.26057206 8.6875 23.88671875 C7.8011376 27.9005303 6.28171274 30.61677077 4 34 C1.625 34.125 1.625 34.125 -1 34 C-3 32 -3 32 -3.0625 29.4375 C-1.28186946 23.6766365 2.77455145 19.22544855 7 15 C7.64767793 12.42938689 7.64767793 12.42938689 8 10 C7.34 10 6.68 10 6 10 C5.731875 10.61875 5.46375 11.2375 5.1875 11.875 C4 14 4 14 1 16 C-1.1875 15.625 -1.1875 15.625 -3 15 C-3.20749784 9.91630285 -2.63931134 5.82150395 -1 1 C-0.67 0.67 -0.34 0.34 0 0 Z " fill="#2F9766" transform="translate(270,376)"/>
<path d="M0 0 C0.33 0 0.66 0 1 0 C1 2.31 1 4.62 1 7 C1.66 7 2.32 7 3 7 C3 10.96 3 14.92 3 19 C8.30463763 17.9575242 8.30463763 17.9575242 11 14 C11.66 14 12.32 14 13 14 C13.26993156 16.9900111 13.31481734 18.5330799 11.609375 21.0625 C10.99578125 21.701875 10.3821875 22.34125 9.75 23 C8.79673828 24.0209375 8.79673828 24.0209375 7.82421875 25.0625 C7.22222656 25.701875 6.62023437 26.34125 6 27 C4.65407903 28.65651812 3.3140151 30.31806068 2 32 C1.67 31.34 1.34 30.68 1 30 C0.34 29.67 -0.32 29.34 -1 29 C-0.34 28.01 0.32 27.02 1 26 C-1.31 26.33 -3.62 26.66 -6 27 C-6.62215842 20.15625736 -4.48688289 14.33206327 -2 8 C-1.67 7.67 -1.34 7.34 -1 7 C-0.63239269 4.67182036 -0.29758419 2.3381615 0 0 Z " fill="#EBF8F4" transform="translate(265,372)"/>
<path d="M0 0 C0.99 0.66 1.98 1.32 3 2 C3.56737589 9.14893617 3.56737589 9.14893617 1 13 C2.98 14.65 4.96 16.3 7 18 C5.265625 18.68359375 5.265625 18.68359375 3 19 C0.859375 17.78515625 0.859375 17.78515625 -1.25 16.0625 C-1.95640625 15.49660156 -2.6628125 14.93070313 -3.390625 14.34765625 C-3.92171875 13.90292969 -4.4528125 13.45820312 -5 13 C-4.67 15.97 -4.34 18.94 -4 22 C-4.99 21.67 -5.98 21.34 -7 21 C-7.70776367 19.26586914 -7.70776367 19.26586914 -8.16796875 17.03515625 C-8.42416992 15.83536133 -8.42416992 15.83536133 -8.68554688 14.61132812 C-8.85119141 13.77021484 -9.01683594 12.92910156 -9.1875 12.0625 C-9.36474609 11.22525391 -9.54199219 10.38800781 -9.72460938 9.52539062 C-11 3.40450048 -11 3.40450048 -11 1 C-7.31233808 -0.18005182 -3.84889483 -0.20993972 0 0 Z " fill="#385882" transform="translate(229,71)"/>
<path d="M0 0 C7.78251599 2.52665245 7.78251599 2.52665245 10 5 C10.5 8.5 10.5 8.5 10 12 C8.25 13.9375 8.25 13.9375 6 15 C4.68 15 3.36 15 2 15 C2.33 17.97 2.66 20.94 3 24 C2.01 23.67 1.02 23.34 0 23 C-0.33 19.7 -0.66 16.4 -1 13 C-4.76430913 14.25476971 -5.05044108 15.69422618 -7 19 C-7.66 19 -8.32 19 -9 19 C-7.6077541 14.37324343 -5.70479016 10.35313769 -3.375 6.125 C-2.74335938 4.97257812 -2.11171875 3.82015625 -1.4609375 2.6328125 C-0.97882813 1.76398438 -0.49671875 0.89515625 0 0 Z " fill="#30517C" transform="translate(322,82)"/>
<path d="M0 0 C2.4375 0.1875 2.4375 0.1875 3.4375 1.1875 C3.86714225 7.3099021 2.89924439 11.61237299 0.4375 17.1875 C-1.3203586 21.19151125 -2.05058476 24.83622044 -2.5625 29.1875 C0.9025 28.6925 0.9025 28.6925 4.4375 28.1875 C3.7775 29.5075 3.1175 30.8275 2.4375 32.1875 C0.125 32.5 0.125 32.5 -2.5625 32.1875 C-5.92932989 28.35627979 -5.82320376 25.12042407 -5.5625 20.1875 C-4.97665791 17.74997846 -4.30848593 15.33087152 -3.5625 12.9375 C-2.03260527 8.14219063 -2.03260527 8.14219063 -1.5625 3.1875 C-2.03300781 3.89777344 -2.50351562 4.60804688 -2.98828125 5.33984375 C-3.61089844 6.25894531 -4.23351562 7.17804688 -4.875 8.125 C-5.79732422 9.49978516 -5.79732422 9.49978516 -6.73828125 10.90234375 C-8.5625 13.1875 -8.5625 13.1875 -11.5625 14.1875 C-10.9025 11.2175 -10.2425 8.2475 -9.5625 5.1875 C-9.2325 5.8475 -8.9025 6.5075 -8.5625 7.1875 C-7.9025 7.1875 -7.2425 7.1875 -6.5625 7.1875 C-6.27375 6.40375 -5.985 5.62 -5.6875 4.8125 C-4.2808559 1.53033043 -3.6609553 0.26787478 0 0 Z " fill="#359D6C" transform="translate(261.5625,369.8125)"/>
<path d="M0 0 C2.31 0 4.62 0 7 0 C7 7.92 7 15.84 7 24 C4.69 24 2.38 24 0 24 C0 16.08 0 8.16 0 0 Z " fill="#123D77" transform="translate(318,425)"/>
<path d="M0 0 C7.59 0 15.18 0 23 0 C23 2.31 23 4.62 23 7 C15.41 7 7.82 7 0 7 C0 4.69 0 2.38 0 0 Z " fill="#20487D" transform="translate(310,411)"/>
<path d="M0 0 C0.70125 0.495 1.4025 0.99 2.125 1.5 C-0.66360349 2.4295345 -3.03800041 2.49247512 -5.9375 2.375 C-9.6602268 2.21819332 -9.6602268 2.21819332 -11.875 3.5 C-13.50602777 6.76205554 -13.39481506 9.93555389 -12.875 13.5 C-12.04166667 15.66666667 -12.04166667 15.66666667 -9.875 16.5 C-4.25753466 17.19020496 -4.25753466 17.19020496 0.5625 14.75 C2.06898898 12.58065587 2.75451193 11.0934165 3.125 8.5 C2.17625 8.995 1.2275 9.49 0.25 10 C-2.875 11.5 -2.875 11.5 -4.875 11.5 C-4.875 10.84 -4.875 10.18 -4.875 9.5 C1.75 5.5 1.75 5.5 5.125 5.5 C5.61301743 12.69825708 5.61301743 12.69825708 3.375 16.375 C0.25757264 19.31923695 -1.53401166 20.35734167 -5.8125 20.8125 C-9.36756959 20.4497378 -11.07082377 19.69786786 -13.875 17.5 C-16.00238138 14.78575479 -16.80409561 12.9760723 -17.3125 9.5625 C-16.75172496 5.63707473 -15.37211051 3.55202395 -12.875 0.5 C-8.76338074 -2.51518746 -4.41577781 -2.30388407 0 0 Z " fill="#3E5D84" transform="translate(204.875,81.5)"/>
<path d="M0 0 C0.66 0 1.32 0 2 0 C2.71413279 8.02124152 3.14525497 15.94641862 3 24 C2.34 24 1.68 24 1 24 C1 21.69 1 19.38 1 17 C-2.3 16.67 -5.6 16.34 -9 16 C-9.66 16.99 -10.32 17.98 -11 19 C-11.99 19 -12.98 19 -14 19 C-12.28256011 14.82466709 -9.36722009 11.73611294 -6.4375 8.375 C-2.85426322 4.44179069 -2.85426322 4.44179069 0 0 Z " fill="#4A688D" transform="translate(301,72)"/>
<path d="M0 0 C0.99 0 1.98 0 3 0 C2.67 3.96 2.34 7.92 2 12 C2.99 11.67 3.98 11.34 5 11 C5.71247732 9.3523962 6.37400383 7.68236471 7 6 C8.375 3.6875 8.375 3.6875 10 2 C11.32 2 12.64 2 14 2 C13.42415568 4.38564077 12.77772405 6.66682784 12 9 C14.64 7.02 17.28 5.04 20 3 C18.25323081 6.49353838 17.08594785 8.13945763 14.375 10.75 C13.74335938 11.36359375 13.11171875 11.9771875 12.4609375 12.609375 C11.73777344 13.29773438 11.73777344 13.29773438 11 14 C10.01 13.34 9.02 12.68 8 12 C8 11.34 8 10.68 8 10 C7.34 10 6.68 10 6 10 C5.731875 10.61875 5.46375 11.2375 5.1875 11.875 C4 14 4 14 1 16 C-1.1875 15.625 -1.1875 15.625 -3 15 C-3.20749784 9.91630285 -2.63931134 5.82150395 -1 1 C-0.67 0.67 -0.34 0.34 0 0 Z " fill="#259560" transform="translate(270,376)"/>
<path d="M0 0 C4.73474097 1.6996506 8.96167111 4.13659027 13.3125 6.625 C14.05306641 7.04523438 14.79363281 7.46546875 15.55664062 7.8984375 C17.37269011 8.92948495 19.18656533 9.96436046 21 11 C17.2578125 12.078125 17.2578125 12.078125 14.9375 11.375 C14.298125 11.25125 13.65875 11.1275 13 11 C11.35405861 12.39588754 11.35405861 12.39588754 10 14 C9.34 14 8.68 14 8 14 C8.33 16.64 8.66 19.28 9 22 C8.34 22 7.68 22 7 22 C0 6.95 0 6.95 0 0 Z " fill="#3A5881" transform="translate(166,99)"/>
<path d="M0 0 C2.875 1.25 2.875 1.25 5 3 C5.8125 5.1875 5.8125 5.1875 6 7 C3.50638429 5.79618552 1.31856917 4.54571278 -1 3 C-4.57176115 3.08167489 -4.57176115 3.08167489 -8 4 C-10.54393252 7.81589878 -10.57737956 10.5299647 -10 15 C-9.10242444 17.14780077 -9.10242444 17.14780077 -7 18 C-2.63293092 18.38991688 -0.69486103 18.46324069 3 16 C3.99 16.33 4.98 16.66 6 17 C2.14087784 20.62523597 -0.67533634 21.90491672 -6 22 C-10.16954047 20.2942789 -12.22064673 18.12060758 -14 14 C-14.4898067 10.63257892 -14.7490388 8.24007534 -12.9453125 5.25390625 C-8.856579 0.20952202 -6.39139109 -0.43331465 0 0 Z " fill="#3C5C83" transform="translate(274,67)"/>
<path d="M0 0 C4.11337176 1.62759314 6.89473572 4.59178519 9.9375 7.6875 C10.47020508 8.22407227 11.00291016 8.76064453 11.55175781 9.31347656 C15.13067503 12.97177827 18.24547842 16.67146609 21 21 C20.34 21.99 19.68 22.98 19 24 C18.01 24 17.02 24 16 24 C16 24.66 16 25.32 16 26 C16.66 26.33 17.32 26.66 18 27 C17.34 27.99 16.68 28.98 16 30 C15.8040625 29.35675781 15.608125 28.71351563 15.40625 28.05078125 C11.97384933 17.67960507 6.03204098 9.00766834 0 0 Z " fill="#1C477F" transform="translate(311,122)"/>
<path d="M0 0 C3.35250701 0.57575664 4.93818629 1.59306263 7.25 4.0625 C7.77078125 4.61035156 8.2915625 5.15820312 8.828125 5.72265625 C9.21484375 6.14417969 9.6015625 6.56570312 10 7 C9.67 7.66 9.34 8.32 9 9 C7.02 7.35 5.04 5.7 3 4 C1.02 4.99 1.02 4.99 -1 6 C-1 7.32 -1 8.64 -1 10 C0.62626404 11.38232443 2.2925002 12.71937515 4 14 C4 14.66 4 15.32 4 16 C0.88801935 14.50163895 -2.0534615 12.80066242 -5 11 C-5.99 11.99 -6.98 12.98 -8 14 C-6.58845234 17.41124018 -4.93778777 18.8456223 -2 21 C-2 21.66 -2 22.32 -2 23 C-6.43458973 21.6062718 -8.87378374 19.39417765 -12 16 C-10.32770299 12.04030824 -7.63695006 8.9838799 -4.875 5.75 C-4.40707031 5.19570312 -3.93914062 4.64140625 -3.45703125 4.0703125 C-2.30824672 2.71052674 -1.15460347 1.35484835 0 0 Z " fill="#2C4D79" transform="translate(345,97)"/>
<path d="M0 0 C2.0062189 0.29359301 4.00511766 0.63729412 6 1 C10.22866713 1.20205235 13.95947856 1.34684048 18 0 C18 0.66 18 1.32 18 2 C17.34 2 16.68 2 16 2 C15.67 2.66 15.34 3.32 15 4 C14.01 4.495 14.01 4.495 13 5 C13 5.66 13 6.32 13 7 C14.98 7 16.96 7 19 7 C18.67 7.66 18.34 8.32 18 9 C16.10448978 9.05441656 14.2085208 9.09298035 12.3125 9.125 C11.25675781 9.14820313 10.20101562 9.17140625 9.11328125 9.1953125 C5.92652877 8.99539076 3.82116792 8.4701861 1 7 C-0.8125 4.375 -0.8125 4.375 -2 2 C-1.34 1.34 -0.68 0.68 0 0 Z " fill="#204A82" transform="translate(222,440)"/>
<path d="M0 0 C1.32 0 2.64 0 4 0 C5.65186774 5.36857015 4.19683648 8.14052348 1.84375 12.90234375 C0.75697829 15.60417897 1.41146669 17.20446677 2 20 C0.8949882 22.53565509 -0.48878855 24.66449139 -2 27 C-2.66 26.67 -3.32 26.34 -4 26 C-4.53846471 18.86534257 -2.68743841 13.56166532 0 7 C0.37382812 6.06542969 0.74765625 5.13085938 1.1328125 4.16796875 C1.41898438 3.45253906 1.70515625 2.73710937 2 2 C1.01 2.33 0.02 2.66 -1 3 C-0.67 2.01 -0.34 1.02 0 0 Z " fill="#269560" transform="translate(250,366)"/>
<path d="M0 0 C0.33 0.66 0.66 1.32 1 2 C0.67 2.66 0.34 3.32 0 4 C0.66 4.33 1.32 4.66 2 5 C1.65743164 5.47308594 1.31486328 5.94617188 0.96191406 6.43359375 C-0.61473849 8.61812518 -2.18238059 10.80897845 -3.75 13 C-4.28882813 13.74378906 -4.82765625 14.48757812 -5.3828125 15.25390625 C-8.76717737 20.00027162 -11.52758 24.71910292 -14 30 C-15.48293822 25.55118535 -13.48730231 23.1515304 -11.53125 19.0546875 C-4.48995984 5.00803213 -4.48995984 5.00803213 0 0 Z " fill="#D3EEE4" transform="translate(218,176)"/>
<path d="M0 0 C0.66 0.33 1.32 0.66 2 1 C2 7.44499815 0.48642934 13.76565559 -1 20 C2.465 19.505 2.465 19.505 6 19 C5.34 20.32 4.68 21.64 4 23 C1.6875 23.3125 1.6875 23.3125 -1 23 C-3.37533558 20.29703193 -3.95548636 18.37836594 -4.375 14.8125 C-3.23636364 3.23636364 -3.23636364 3.23636364 0 0 Z " fill="#1A9358" transform="translate(260,379)"/>
<path d="M0 0 C2 3 2 3 1.75390625 5.32421875 C0.94010678 8.21257437 -0.0125458 11.0013323 -1.0625 13.8125 C-1.42472656 14.78832031 -1.78695312 15.76414062 -2.16015625 16.76953125 C-2.43730469 17.50558594 -2.71445313 18.24164063 -3 19 C-3.99 18.67 -4.98 18.34 -6 18 C-6.36571706 12.2704328 -5.57237306 7.1976756 -3 2 C-2.01 1.34 -1.02 0.68 0 0 Z " fill="#1D955B" transform="translate(239,378)"/>
<path d="M0 0 C2.96175123 0.61277612 4.38058783 1.25372522 7 3 C7.3125 5.5 7.3125 5.5 7 8 C6.34 8.66 5.68 9.32 5 10 C2 9.8125 2 9.8125 -1 9 C-1.66 8.01 -2.32 7.02 -3 6 C-2.01 4.02 -1.02 2.04 0 0 Z " fill="#E8EFF2" transform="translate(323,85)"/>
<path d="M0 0 C1 1 1 1 1.25 3.9375 C1.1675 4.948125 1.085 5.95875 1 7 C-2.22791555 9.1519437 -3.28400809 9.20086443 -7 9 C-7.33 6.36 -7.66 3.72 -8 1 C-5.05549278 0.01849759 -3.06481021 -0.1613058 0 0 Z " fill="#EBF1F4" transform="translate(229,73)"/>
<path d="M0 0 C0.66 0 1.32 0 2 0 C1.37619204 3.65091819 0.33419077 6.82585489 -1.0625 10.25 C-3.01670607 15.44945804 -3.36178983 19.48270514 -3 25 C-3.66 25 -4.32 25 -5 25 C-5 21.37 -5 17.74 -5 14 C-5.99 14.33 -6.98 14.66 -8 15 C-6.5482621 9.33822218 -3.68441695 4.50540116 0 0 Z " fill="#D8F1E9" transform="translate(250,368)"/>
<path d="M0 0 C0.33 0 0.66 0 1 0 C1.85298376 3.67387495 2.10789471 7.0447393 2.0625 10.8125 C2.05347656 11.78832031 2.04445313 12.76414062 2.03515625 13.76953125 C2.02355469 14.50558594 2.01195312 15.24164063 2 16 C1.34 16 0.68 16 0 16 C0 13.69 0 11.38 0 9 C-3.3 8.67 -6.6 8.34 -10 8 C-10.99 9.485 -10.99 9.485 -12 11 C-12.99 11 -13.98 11 -15 11 C-13.55922954 7.63820226 -11.75249979 5.40843732 -9 3 C-8.34 3 -7.68 3 -7 3 C-6.67 3.66 -6.34 4.32 -6 5 C-4.02111039 5.72693904 -2.02045442 6.39816251 0 7 C0 4.69 0 2.38 0 0 Z " fill="#33547F" transform="translate(302,80)"/>
<path d="M0 0 C6.625 -0.25 6.625 -0.25 10 2 C10.56737589 9.14893617 10.56737589 9.14893617 8 13 C9.98 14.65 11.96 16.3 14 18 C12.3125 18.75 12.3125 18.75 10 19 C7.25 17.375 7.25 17.375 5 15 C4.6875 12.25 4.6875 12.25 5 10 C5.66 9.67 6.32 9.34 7 9 C7 7.02 7 5.04 7 3 C4.36 2.67 1.72 2.34 -1 2 C-0.67 1.34 -0.34 0.68 0 0 Z " fill="#44628A" transform="translate(222,71)"/>
<path d="M0 0 C0.99 0 1.98 0 3 0 C2.855625 0.56847656 2.71125 1.13695312 2.5625 1.72265625 C1.38454495 6.62262205 0.78572473 10.9645312 1 16 C-0.32 15.67 -1.64 15.34 -3 15 C-3.20749784 9.91630285 -2.63931134 5.82150395 -1 1 C-0.67 0.67 -0.34 0.34 0 0 Z " fill="#319A68" transform="translate(270,376)"/>
<path d="M0 0 C0.99 0 1.98 0 3 0 C3.33 6.93 3.66 13.86 4 21 C3.01 21 2.02 21 1 21 C0.67 14.07 0.34 7.14 0 0 Z " fill="#466387" transform="translate(245,67)"/>
<path d="M0 0 C3.77545388 1.09068668 6.47043472 1.9083091 9 5 C7.741875 4.773125 6.48375 4.54625 5.1875 4.3125 C1.89580084 3.77993292 1.89580084 3.77993292 -0.875 5.4375 C-1.24625 5.953125 -1.6175 6.46875 -2 7 C-2.66 7 -3.32 7 -4 7 C-3.67 9.64 -3.34 12.28 -3 15 C-3.66 15 -4.32 15 -5 15 C-6.49821059 11.62902617 -7 9.79557881 -7 6 C-2.92857143 3 -2.92857143 3 0 3 C0 2.01 0 1.02 0 0 Z " fill="#2B4D78" transform="translate(178,106)"/>
<path d="M0 0 C2.875 1.5 2.875 1.5 5 3 C2.21139651 3.9295345 -0.16300041 3.99247512 -3.0625 3.875 C-6.80541351 3.68215572 -6.80541351 3.68215572 -8.9375 5.125 C-10.38591512 7.68102669 -10.67815583 10.10340247 -11 13 C-11.33 13 -11.66 13 -12 13 C-12.8125 9.8125 -12.8125 9.8125 -13 6 C-9.00900022 1.03821649 -6.30770338 -0.49472183 0 0 Z " fill="#426087" transform="translate(202,80)"/>
<path d="M0 0 C1.63129887 4.06285757 0.29968777 7.20102184 -0.9375 11.25 C-1.31777344 12.51328125 -1.69804687 13.7765625 -2.08984375 15.078125 C-2.54037109 16.52445312 -2.54037109 16.52445312 -3 18 C-3.68707555 15.50935112 -4 13.62113708 -4 11 C-5.98 11.99 -5.98 11.99 -8 13 C-6.40956621 7.91061189 -3.2553049 4.12543357 0 0 Z " fill="#CEEBE1" transform="translate(260,372)"/>
<path d="M0 0 C0.99 0 1.98 0 3 0 C3 1.98 3 3.96 3 6 C-0.13498292 7.85776765 -2.37471432 8.20140476 -6 8 C-6 7.01 -6 6.02 -6 5 C-7.32 4.34 -8.64 3.68 -10 3 C-8.906875 3.020625 -7.81375 3.04125 -6.6875 3.0625 C-3.05615809 3.18544452 -3.05615809 3.18544452 0 2 C0 1.34 0 0.68 0 0 Z " fill="#073778" transform="translate(240,440)"/>
<path d="M0 0 C0.66 0.66 1.32 1.32 2 2 C1.06398754 3.41764994 0.1261208 4.83407568 -0.8125 6.25 C-1.33457031 7.03890625 -1.85664063 7.8278125 -2.39453125 8.640625 C-3.87134122 10.81092481 -5.40689873 12.91413768 -7 15 C-7.66 13.68 -8.32 12.36 -9 11 C-9.99 11.495 -9.99 11.495 -11 12 C-10.5020163 8.26512223 -10.12508244 6.18762365 -8 3 C-7.34 5.31 -6.68 7.62 -6 10 C-4.02 6.7 -2.04 3.4 0 0 Z " fill="#329E6B" transform="translate(248,368)"/>
<path d="M0 0 C2.875 1.25 2.875 1.25 5 3 C5.8125 5.1875 5.8125 5.1875 6 7 C3.50638429 5.79618552 1.31856917 4.54571278 -1 3 C-4.57176115 3.08167489 -4.57176115 3.08167489 -8 4 C-8.99 5.485 -8.99 5.485 -10 7 C-10.99 7 -11.98 7 -13 7 C-10.36182511 0.62441069 -6.75474203 -0.71102548 0 0 Z " fill="#2C4D79" transform="translate(274,67)"/>
<path d="M0 0 C0.33 0.99 0.66 1.98 1 3 C2.65 3.33 4.3 3.66 6 4 C6 4.33 6 4.66 6 5 C3.69 5 1.38 5 -1 5 C-1 14.24 -1 23.48 -1 33 C-1.33 33 -1.66 33 -2 33 C-2 23.76 -2 14.52 -2 5 C-3.32 4.67 -4.64 4.34 -6 4 C-6 3.67 -6 3.34 -6 3 C-5.195625 2.87625 -4.39125 2.7525 -3.5625 2.625 C-2.716875 2.41875 -1.87125 2.2125 -1 2 C-0.67 1.34 -0.34 0.68 0 0 Z " fill="#CDE1DF" transform="translate(275,407)"/>
<path d="M0 0 C0.36666667 7.33333333 0.36666667 7.33333333 -1.375 10.5 C-3 12 -3 12 -5 12 C-4.01 9.03 -3.02 6.06 -2 3 C-2.94875 3.495 -3.8975 3.99 -4.875 4.5 C-8 6 -8 6 -10 6 C-10 5.34 -10 4.68 -10 4 C-3.375 0 -3.375 0 0 0 Z " fill="#294B75" transform="translate(210,87)"/>
<path d="M0 0 C1.67542976 0.28604898 3.34385343 0.61781233 5 1 C5 2.65 5 4.3 5 6 C2.625 6.625 2.625 6.625 0 7 C-0.66 6.34 -1.32 5.68 -2 5 C-1.46428571 1.46428571 -1.46428571 1.46428571 0 0 Z " fill="#234A7C" transform="translate(231,427)"/>
<path d="M0 0 C0.33 0.99 0.66 1.98 1 3 C1.66 3.33 2.32 3.66 3 4 C2.5520266 6.31452922 2.09133539 8.62660039 1.625 10.9375 C1.36976563 12.22527344 1.11453125 13.51304687 0.8515625 14.83984375 C0.57054687 15.88269531 0.28953125 16.92554688 0 18 C-0.66 18.33 -1.32 18.66 -2 19 C-2.22262303 12.2718373 -1.95021536 6.46008837 0 0 Z " fill="#B0DFCE" transform="translate(179,302)"/>
<path d="M0 0 C6.27 0.66 12.54 1.32 19 2 C19.33 1.34 19.66 0.68 20 0 C20 0.99 20 1.98 20 3 C18.35 3.33 16.7 3.66 15 4 C15 4.33 15 4.66 15 5 C9.33557626 4.63495936 4.99296295 3.9445679 0 1 C0 0.67 0 0.34 0 0 Z " fill="#BBE5D6" transform="translate(170,265)"/>
<path d="M0 0 C3.68069887 1.53643852 5.98775204 3.78150945 8.75 6.625 C9.54921875 7.44226563 10.3484375 8.25953125 11.171875 9.1015625 C12.07679688 10.04128906 12.07679688 10.04128906 13 11 C12.01 11.33 11.02 11.66 10 12 C9.67 12.66 9.34 13.32 9 14 C2.66514806 4.58997722 2.66514806 4.58997722 0 0 Z " fill="#22487A" transform="translate(311,122)"/>
<path d="M0 0 C0.66 0.33 1.32 0.66 2 1 C-1.86364295 5.48717034 -5.74790208 9.87675353 -10 14 C-10.66 13.67 -11.32 13.34 -12 13 C-10.56354149 11.39490066 -9.12579294 9.79095576 -7.6875 8.1875 C-6.88699219 7.29417969 -6.08648437 6.40085938 -5.26171875 5.48046875 C-3.54775419 3.60073214 -1.82122396 1.77407253 0 0 Z " fill="#D5EFE6" transform="translate(222,216)"/>
<path d="M0 0 C0.66 0.33 1.32 0.66 2 1 C0.88200014 2.33920838 -0.24461897 3.67122556 -1.375 5 C-2.00148437 5.7425 -2.62796875 6.485 -3.2734375 7.25 C-4.12808594 8.11625 -4.12808594 8.11625 -5 9 C-5.66 9 -6.32 9 -7 9 C-7.33 10.65 -7.66 12.3 -8 14 C-8.66 14 -9.32 14 -10 14 C-8.71399035 8.97287136 -6.82997078 6.4563151 -3 3 C-2.401875 2.401875 -1.80375 1.80375 -1.1875 1.1875 C-0.795625 0.795625 -0.40375 0.40375 0 0 Z " fill="#2A9A65" transform="translate(191,294)"/>
<path d="M0 0 C0.88336837 2.4667645 1.1312406 3.63859372 0.22265625 6.140625 C-0.16019531 6.83671875 -0.54304688 7.5328125 -0.9375 8.25 C-1.31777344 8.95640625 -1.69804687 9.6628125 -2.08984375 10.390625 C-2.39019531 10.92171875 -2.69054687 11.4528125 -3 12 C-3.66 12 -4.32 12 -5 12 C-4.58525633 6.71201818 -3.64775386 3.88309282 0 0 Z " fill="#D5F1E9" transform="translate(275,396)"/>
<path d="M0 0 C0.66 0.99 1.32 1.98 2 3 C1.45730469 3.47050781 0.91460937 3.94101563 0.35546875 4.42578125 C-0.35996094 5.04839844 -1.07539063 5.67101562 -1.8125 6.3125 C-2.52019531 6.92738281 -3.22789062 7.54226562 -3.95703125 8.17578125 C-5.70136739 9.73334335 -7.36778041 11.32658875 -9 13 C-9.66 12.67 -10.32 12.34 -11 12 C-3.70159453 3.55353075 -3.70159453 3.55353075 0 0 Z " fill="#DFF4EE" transform="translate(232,160)"/>
<path d="M0 0 C3.465 1.98 3.465 1.98 7 4 C6.1875 5.9375 6.1875 5.9375 5 8 C4.01 8.33 3.02 8.66 2 9 C0.50178941 5.62902617 0 3.79557881 0 0 Z " fill="#DFE8ED" transform="translate(170,103)"/>
<path d="M0 0 C0.33 0 0.66 0 1 0 C1 2.97 1 5.94 1 9 C-0.65 9 -2.3 9 -4 9 C-4 4.3232567 -3.06180687 3.34015295 0 0 Z " fill="#E1E9EF" transform="translate(300,77)"/>
<path d="M0 0 C0.33 0 0.66 0 1 0 C1.85298376 3.67387495 2.10789471 7.0447393 2.0625 10.8125 C2.05347656 11.78832031 2.04445313 12.76414062 2.03515625 13.76953125 C2.02355469 14.50558594 2.01195312 15.24164063 2 16 C1.34 16 0.68 16 0 16 C0 13.69 0 11.38 0 9 C-1.32 8.34 -2.64 7.68 -4 7 C-2.68 7 -1.36 7 0 7 C0 4.69 0 2.38 0 0 Z " fill="#294A76" transform="translate(302,80)"/>
<path d="M0 0 C0.64453125 1.85546875 0.64453125 1.85546875 1 4 C-0.66666667 5.66666667 -2.33333333 7.33333333 -4 9 C-4.97248094 11.33395426 -5.46344051 13.51231508 -6 16 C-7.125 14.3125 -7.125 14.3125 -8 12 C-6.93075807 7.05475609 -3.32499547 3.62821832 0 0 Z " fill="#51A37D" transform="translate(276,392)"/>
<path d="M0 0 C0.66 0.99 1.32 1.98 2 3 C1.34 4.32 0.68 5.64 0 7 C0 6.34 0 5.68 0 5 C-0.66 5 -1.32 5 -2 5 C-2.66 6.32 -3.32 7.64 -4 9 C-5.32 9 -6.64 9 -8 9 C-8 7.35 -8 5.7 -8 4 C-7.01 5.485 -7.01 5.485 -6 7 C-5.01 6.67 -4.02 6.34 -3 6 C-1.84478498 3.52869082 -1.84478498 3.52869082 -1 1 C-0.67 0.67 -0.34 0.34 0 0 Z " fill="#71B798" transform="translate(278,381)"/>
<path d="M0 0 C0.66 0.33 1.32 0.66 2 1 C1.23997083 2.31878578 0.46656347 3.6298684 -0.3125 4.9375 C-0.74175781 5.66839844 -1.17101562 6.39929688 -1.61328125 7.15234375 C-3 9 -3 9 -6 10 C-5.34 7.03 -4.68 4.06 -4 1 C-3.67 1.66 -3.34 2.32 -3 3 C-2.34 3 -1.68 3 -1 3 C-0.67 2.01 -0.34 1.02 0 0 Z " fill="#5EB08B" transform="translate(256,374)"/>
<path d="M0 0 C3.35250701 0.57575664 4.93818629 1.59306263 7.25 4.0625 C7.77078125 4.61035156 8.2915625 5.15820312 8.828125 5.72265625 C9.21484375 6.14417969 9.6015625 6.56570312 10 7 C9.67 7.66 9.34 8.32 9 9 C8.113125 8.195625 7.22625 7.39125 6.3125 6.5625 C3.61712968 4.2960841 1.57936522 3.31582634 -2 3 C-1.34 2.01 -0.68 1.02 0 0 Z " fill="#39587F" transform="translate(345,97)"/>
<path d="M0 0 C0.66 0 1.32 0 2 0 C0.59155282 3.21524305 -1.10344786 5.32183868 -3.625 7.75 C-4.57246094 8.67039062 -4.57246094 8.67039062 -5.5390625 9.609375 C-6.02117187 10.06828125 -6.50328125 10.5271875 -7 11 C-7.66 10.67 -8.32 10.34 -9 10 C-7.8758824 8.70756532 -6.75067408 7.41607925 -5.625 6.125 C-4.99851563 5.40570313 -4.37203125 4.68640625 -3.7265625 3.9453125 C-2.52573166 2.5923402 -1.2791655 1.2791655 0 0 Z " fill="#21965E" transform="translate(148,287)"/>
<path d="M0 0 C0.66 0.33 1.32 0.66 2 1 C-1.63 4.63 -5.26 8.26 -9 12 C-9 8.47601214 -8.44884893 7.98495633 -6.1875 5.4375 C-5.40439453 4.53837891 -5.40439453 4.53837891 -4.60546875 3.62109375 C-3 2 -3 2 0 0 Z " fill="#D6EFE7" transform="translate(192,286)"/>
<path d="M0 0 C0.33 0.99 0.66 1.98 1 3 C4.465 2.505 4.465 2.505 8 2 C7.34 3.32 6.68 4.64 6 6 C4.35 6 2.7 6 1 6 C-0.0625 4.125 -0.0625 4.125 -1 2 C-0.67 1.34 -0.34 0.68 0 0 Z " fill="#3D996E" transform="translate(258,396)"/>
<path d="M0 0 C0.66 0.33 1.32 0.66 2 1 C2 4.36187244 1.4298653 7.66854391 1 11 C0.67 9.68 0.34 8.36 0 7 C-0.66 7 -1.32 7 -2 7 C-1.125 1.125 -1.125 1.125 0 0 Z " fill="#259861" transform="translate(260,379)"/>
<path d="M0 0 C-2.12780579 2.34058637 -4.11562221 3.70700306 -7 5 C-7 4.34 -7 3.68 -7 3 C-8.98 3.33 -10.96 3.66 -13 4 C-9.38656695 0.38656695 -4.97659681 -0.29274099 0 0 Z " fill="#49A078" transform="translate(197,283)"/>
<path d="M0 0 C0.7425 0.763125 1.485 1.52625 2.25 2.3125 C4.823554 4.95571199 4.823554 4.95571199 7.3125 6.6875 C7.869375 7.120625 8.42625 7.55375 9 8 C9 8.66 9 9.32 9 10 C4.56541027 8.6062718 2.12621626 6.39417765 -1 3 C-0.67 2.01 -0.34 1.02 0 0 Z " fill="#34537C" transform="translate(334,110)"/>
<path d="M0 0 C0.99 0 1.98 0 3 0 C3 3.3 3 6.6 3 10 C0 7 0 7 -0.1875 3.3125 C-0.125625 2.219375 -0.06375 1.12625 0 0 Z " fill="#446289" transform="translate(260,74)"/>
<path d="M0 0 C6.625 -0.25 6.625 -0.25 10 2 C10.1875 5.125 10.1875 5.125 10 8 C9.690625 7.360625 9.38125 6.72125 9.0625 6.0625 C8.1654837 4.06389179 8.1654837 4.06389179 7 3 C5.65252916 2.76924918 4.29622435 2.58846937 2.9375 2.4375 C1.638125 2.293125 0.33875 2.14875 -1 2 C-0.67 1.34 -0.34 0.68 0 0 Z " fill="#264874" transform="translate(222,71)"/>
<path d="M0 0 C1.98 0.99 1.98 0.99 4 2 C3.25 6.75 3.25 6.75 1 9 C0 8 0 8 -0.09765625 6.15234375 C-0.06510417 4.1015625 -0.03255208 2.05078125 0 0 Z " fill="#118D51" transform="translate(246,384)"/>
<path d="M0 0 C0.33 0.66 0.66 1.32 1 2 C-0.21484375 4.3828125 -0.21484375 4.3828125 -1.9375 7.125 C-2.50339844 8.03507813 -3.06929688 8.94515625 -3.65234375 9.8828125 C-4.09707031 10.58148438 -4.54179687 11.28015625 -5 12 C-5.99 11.34 -6.98 10.68 -8 10 C-5.36 6.7 -2.72 3.4 0 0 Z " fill="#56A280" transform="translate(304,210)"/>
<path d="M0 0 C0.33 0 0.66 0 1 0 C1.02712066 1.43739513 1.04645067 2.87493863 1.0625 4.3125 C1.07410156 5.11300781 1.08570313 5.91351563 1.09765625 6.73828125 C1 9 1 9 0 12 C-0.66 12 -1.32 12 -2 12 C-1.85831863 10.56208484 -1.71148957 9.1246763 -1.5625 7.6875 C-1.48128906 6.88699219 -1.40007812 6.08648437 -1.31640625 5.26171875 C-1 3 -1 3 0 0 Z " fill="#148D53" transform="translate(279,385)"/>
<path d="M0 0 C0.33 0 0.66 0 1 0 C1.28883414 4.06534057 0.57875609 6.33058355 -1.5 9.8125 C-1.9640625 10.60269531 -2.428125 11.39289063 -2.90625 12.20703125 C-3.44765625 13.09455078 -3.44765625 13.09455078 -4 14 C-5.305239 10.08428299 -4.32239848 8.96107003 -2.5625 5.3125 C-2.08941406 4.31863281 -1.61632812 3.32476562 -1.12890625 2.30078125 C-0.75636719 1.54152344 -0.38382813 0.78226563 0 0 Z " fill="#A5DFC8" transform="translate(208,192)"/>
<path d="M0 0 C0 3 0 3 -1.3125 4.60546875 C-1.869375 5.12753906 -2.42625 5.64960938 -3 6.1875 C-3.556875 6.71730469 -4.11375 7.24710938 -4.6875 7.79296875 C-5.120625 8.19128906 -5.55375 8.58960938 -6 9 C-6.99 8.67 -7.98 8.34 -9 8 C-6.03 5.36 -3.06 2.72 0 0 Z " fill="#2C9A65" transform="translate(234,167)"/>
<path d="M0 0 C0.33 0.99 0.66 1.98 1 3 C1.99 3.33 2.98 3.66 4 4 C3.01 4.33 2.02 4.66 1 5 C-0.01187895 6.65948148 -1.0126546 8.32580562 -2 10 C-2.66 10 -3.32 10 -4 10 C-2.8905928 6.51329166 -1.73662334 3.22515763 0 0 Z " fill="#466488" transform="translate(317,91)"/>
<path d="M0 0 C0.66 0 1.32 0 2 0 C2.25 7.625 2.25 7.625 0 11 C-0.84098656 6.98195309 -1.05404945 3.98196457 0 0 Z " fill="#22925E" transform="translate(241,365)"/>
<path d="M0 0 C0.33 0.66 0.66 1.32 1 2 C0.67 2.99 0.34 3.98 0 5 C-0.06740865 6.56118428 -0.08514456 8.1250252 -0.0625 9.6875 C-0.05347656 10.49574219 -0.04445312 11.30398438 -0.03515625 12.13671875 C-0.02355469 12.75160156 -0.01195312 13.36648438 0 14 C-0.66 14 -1.32 14 -2 14 C-2.33 10.04 -2.66 6.08 -3 2 C-2.01 1.34 -1.02 0.68 0 0 Z " fill="#B2DDCB" transform="translate(247,379)"/>
<path d="M0 0 C1.98 0.495 1.98 0.495 4 1 C3.1875 3.4375 3.1875 3.4375 2 6 C1.01 6.33 0.02 6.66 -1 7 C-0.67 4.69 -0.34 2.38 0 0 Z " fill="#E3F6F1" transform="translate(181,298)"/>
<path d="M0 0 C0 3 0 3 -1.53125 4.60546875 C-2.1809375 5.12753906 -2.830625 5.64960938 -3.5 6.1875 C-4.1496875 6.71730469 -4.799375 7.24710937 -5.46875 7.79296875 C-5.9740625 8.19128906 -6.479375 8.58960938 -7 9 C-7.33 7.68 -7.66 6.36 -8 5 C-7.13375 4.87625 -7.13375 4.87625 -6.25 4.75 C-3.3840696 3.79468987 -2.0009236 2.21530827 0 0 Z " fill="#5BA483" transform="translate(289,379)"/>
<path d="M0 0 C0.33 0 0.66 0 1 0 C2.35384615 7.26153846 2.35384615 7.26153846 0.5625 11 C0.046875 11.66 -0.46875 12.32 -1 13 C-2.12758089 9.61725734 -1.81750262 8.23221777 -1.0625 4.8125 C-0.86785156 3.91144531 -0.67320312 3.01039063 -0.47265625 2.08203125 C-0.23869141 1.05142578 -0.23869141 1.05142578 0 0 Z " fill="#B4E4D1" transform="translate(243,366)"/>
<path d="M0 0 C0.66 0.66 1.32 1.32 2 2 C1.68134222 5.29279709 0.45484649 6.86535088 -2 9 C-1.125 2.25 -1.125 2.25 0 0 Z " fill="#D0EEE4" transform="translate(211,186)"/>
<path d="M0 0 C1.32 0 2.64 0 4 0 C4.33 1.32 4.66 2.64 5 4 C4.01 4.66 3.02 5.32 2 6 C0 3 0 3 0 0 Z " fill="#0F3C76" transform="translate(321,134)"/>
<path d="M0 0 C4.0084034 2.0042017 5.41409657 3.49055963 8 7 C7.34 7.66 6.68 8.32 6 9 C4.02 6.03 2.04 3.06 0 0 Z " fill="#647B95" transform="translate(311,122)"/>
<path d="M0 0 C0.66 0.33 1.32 0.66 2 1 C2 3.97 2 6.94 2 10 C1.01 9.67 0.02 9.34 -1 9 C-0.67 6.03 -0.34 3.06 0 0 Z " fill="#516E91" transform="translate(323,96)"/>
<path d="M0 0 C0.33 0 0.66 0 1 0 C1.25 2.8125 1.25 2.8125 1 6 C-0.8125 7.875 -0.8125 7.875 -3 9 C-3.99 9 -4.98 9 -6 9 C-6 8.34 -6 7.68 -6 7 C-5.195625 6.54625 -4.39125 6.0925 -3.5625 5.625 C-0.84763807 4.26579005 -0.84763807 4.26579005 -0.1875 1.8125 C-0.125625 1.214375 -0.06375 0.61625 0 0 Z " fill="#274872" transform="translate(331,88)"/>
<path d="M0 0 C-0.66 0 -1.32 0 -2 0 C-2 0.66 -2 1.32 -2 2 C-7.75 5 -7.75 5 -10 5 C-10 4.34 -10 3.68 -10 3 C-3.375 -1.125 -3.375 -1.125 0 0 Z " fill="#435E82" transform="translate(210,88)"/>
<path d="M0 0 C0.66 0 1.32 0 2 0 C2.1875 2.375 2.1875 2.375 2 5 C1.01 5.66 0.02 6.32 -1 7 C-1 6.34 -1 5.68 -1 5 C-1.66 4.67 -2.32 4.34 -3 4 C-1.625 2 -1.625 2 0 0 Z " fill="#D9F2EA" transform="translate(276,386)"/>
<path d="M0 0 C0.66 0.66 1.32 1.32 2 2 C0.02 4.97 -1.96 7.94 -4 11 C-5 8 -5 8 -4.00390625 5.95703125 C-3.52824219 5.24933594 -3.05257812 4.54164063 -2.5625 3.8125 C-2.08941406 3.09707031 -1.61632812 2.38164062 -1.12890625 1.64453125 C-0.75636719 1.10183594 -0.38382813 0.55914062 0 0 Z " fill="#509B78" transform="translate(248,368)"/>
<path d="M0 0 C0.66 0 1.32 0 2 0 C3.42944945 2.35438733 4.08661261 3.48032433 3.625 6.25 C3.41875 6.8275 3.2125 7.405 3 8 C1.5 6.8125 1.5 6.8125 0 5 C-0.1875 2.3125 -0.1875 2.3125 0 0 Z " fill="#2C5283" transform="translate(246,419)"/>
<path d="M0 0 C1.32 0.66 2.64 1.32 4 2 C1.1875 3.5625 1.1875 3.5625 -2 5 C-2.99 4.67 -3.98 4.34 -5 4 C-3.35 2.68 -1.7 1.36 0 0 Z " fill="#BCE7D8" transform="translate(158,293)"/>
<path d="M0 0 C0.66 0 1.32 0 2 0 C1.6875 2.375 1.6875 2.375 1 5 C0.01 5.66 -0.98 6.32 -2 7 C-2 3 -2 3 0 0 Z " fill="#E8F8F3" transform="translate(215,182)"/>
<path d="M0 0 C0.99 0.66 1.98 1.32 3 2 C2.01 2 1.02 2 0 2 C-0.33 3.98 -0.66 5.96 -1 8 C-1.99 7.34 -2.98 6.68 -4 6 C-2.84826645 3.53199953 -1.95216435 1.95216435 0 0 Z " fill="#D6E2E9" transform="translate(340,107)"/>
<path d="M0 0 C0.99 0.33 1.98 0.66 3 1 C1.1875 3.5 1.1875 3.5 -1 6 C-1.99 6 -2.98 6 -4 6 C-2.84826645 3.53199953 -1.95216435 1.95216435 0 0 Z " fill="#36567E" transform="translate(265,68)"/>
<path d="M0 0 C4.29 0.33 8.58 0.66 13 1 C13 1.33 13 1.66 13 2 C7.06 2.495 7.06 2.495 1 3 C0.67 2.01 0.34 1.02 0 0 Z " fill="#6FB896" transform="translate(150,255)"/>
<path d="M0 0 C3.79588866 0.54226981 5.47211993 2.20127563 8 5 C4.75791433 4.64950425 3.38472296 4.43778819 1.1875 1.9375 C0.795625 1.298125 0.40375 0.65875 0 0 Z " fill="#2B4C76" transform="translate(228,85)"/>
</svg>
